<?xml version="1.0" encoding="UTF-8"?>
<!DOCTYPE svg PUBLIC "-//W3C//DTD SVG 1.1//EN" "http://www.w3.org/Graphics/SVG/1.1/DTD/svg11.dtd">
<svg xmlns="http://www.w3.org/2000/svg" version="1.1" width="800px" height="400px" style="shape-rendering:geometricPrecision; text-rendering:geometricPrecision; image-rendering:optimizeQuality; fill-rule:evenodd; clip-rule:evenodd" xmlns:xlink="http://www.w3.org/1999/xlink">
<g><path style="opacity:0.953" fill="#000000" d="M 48.5,125.5 C 57.5,125.5 66.5,125.5 75.5,125.5C 75.5,168.5 75.5,211.5 75.5,254.5C 86.1667,254.5 96.8333,254.5 107.5,254.5C 107.5,260.167 107.5,265.833 107.5,271.5C 77.5,271.5 47.5,271.5 17.5,271.5C 17.5,265.833 17.5,260.167 17.5,254.5C 30.5,254.5 43.5,254.5 56.5,254.5C 56.8332,217.161 56.4999,179.827 55.5,142.5C 43.1412,152.026 30.6412,161.359 18,170.5C 17.1687,163.144 17.3354,155.811 18.5,148.5C 28.5686,140.813 38.5686,133.146 48.5,125.5 Z"/></g>
<g><path style="opacity:0.965" fill="#000000" d="M 192.5,125.5 C 199.508,125.334 206.508,125.5 213.5,126C 193.667,155.833 173.833,185.667 154,215.5C 153.503,217.81 153.337,220.143 153.5,222.5C 169.5,222.5 185.5,222.5 201.5,222.5C 201.5,210.833 201.5,199.167 201.5,187.5C 207.5,187.5 213.5,187.5 219.5,187.5C 219.5,215.5 219.5,243.5 219.5,271.5C 213.5,271.5 207.5,271.5 201.5,271.5C 201.5,260.833 201.5,250.167 201.5,239.5C 179.5,239.5 157.5,239.5 135.5,239.5C 135.334,229.494 135.5,219.494 136,209.5C 154.663,181.346 173.497,153.346 192.5,125.5 Z"/></g>
<g><path style="opacity:0.946" fill="#000000" d="M 259.5,125.5 C 285.5,125.5 311.5,125.5 337.5,125.5C 337.5,131.167 337.5,136.833 337.5,142.5C 317.833,142.5 298.167,142.5 278.5,142.5C 278.374,157.846 278.208,173.179 278,188.5C 281.176,181.331 286.676,177.164 294.5,176C 307.578,173.509 319.578,175.842 330.5,183C 336.576,189.317 340.409,196.817 342,205.5C 342.667,217.833 342.667,230.167 342,242.5C 336.136,264.34 321.803,274.674 299,273.5C 281.898,274.592 268.898,267.925 260,253.5C 257.701,249.104 256.534,244.438 256.5,239.5C 262.833,239.5 269.167,239.5 275.5,239.5C 276.013,247.357 280.013,252.524 287.5,255C 312.909,260.761 325.243,250.594 324.5,224.5C 325.037,215.078 322.87,206.411 318,198.5C 305.716,188.875 293.716,189.208 282,199.5C 280.634,201.37 279.467,203.37 278.5,205.5C 272.202,206.496 265.868,206.83 259.5,206.5C 259.5,179.5 259.5,152.5 259.5,125.5 Z"/></g>
<g><path style="opacity:0.952" fill="#000000" d="M 377.5,125.5 C 383.833,125.5 390.167,125.5 396.5,125.5C 396.5,146.167 396.5,166.833 396.5,187.5C 411.833,187.5 427.167,187.5 442.5,187.5C 442.5,166.833 442.5,146.167 442.5,125.5C 448.833,125.5 455.167,125.5 461.5,125.5C 461.5,174.167 461.5,222.833 461.5,271.5C 455.167,271.5 448.833,271.5 442.5,271.5C 442.5,249.167 442.5,226.833 442.5,204.5C 427.167,204.5 411.833,204.5 396.5,204.5C 396.5,226.833 396.5,249.167 396.5,271.5C 390.167,271.5 383.833,271.5 377.5,271.5C 377.5,222.833 377.5,174.167 377.5,125.5 Z"/></g>
<g><path style="opacity:0.947" fill="#000000" d="M 617.5,125.5 C 623.833,125.5 630.167,125.5 636.5,125.5C 636.333,142.503 636.5,159.503 637,176.5C 640.763,167.735 647.263,162.235 656.5,160C 678.156,156.073 692.989,164.24 701,184.5C 702.105,195.12 702.605,205.786 702.5,216.5C 702.605,227.214 702.105,237.88 701,248.5C 692.989,268.76 678.156,276.927 656.5,273C 647.186,270.676 640.686,265.176 637,256.5C 636.501,261.489 636.334,266.489 636.5,271.5C 630.167,271.5 623.833,271.5 617.5,271.5C 617.5,222.833 617.5,174.167 617.5,125.5 Z M 655.5,175.5 C 673.713,174.681 683.213,183.348 684,201.5C 684.667,211.5 684.667,221.5 684,231.5C 682.366,251.796 671.532,259.962 651.5,256C 643.388,252.888 638.555,247.054 637,238.5C 636.062,222.446 636.395,206.446 638,190.5C 641.282,182.376 647.115,177.376 655.5,175.5 Z"/></g>
<g><path style="opacity:0.974" fill="#000000" d="M 497.5,161.5 C 503.5,161.5 509.5,161.5 515.5,161.5C 515.086,187.861 515.586,214.195 517,240.5C 522.455,254.771 532.622,259.938 547.5,256C 558.341,251.497 563.507,243.33 563,231.5C 563.5,208.169 563.667,184.836 563.5,161.5C 569.5,161.5 575.5,161.5 581.5,161.5C 581.667,188.502 581.5,215.502 581,242.5C 575.249,263.628 561.416,273.961 539.5,273.5C 517.477,273.962 503.644,263.629 498,242.5C 497.5,215.502 497.333,188.502 497.5,161.5 Z"/></g>
</svg>
